<?xml version="1.0" encoding="utf-8"?>
<!-- Generator: Fusion 360, Shaper Origin Export Add-In, Version 1.7.0  -->
<svg xmlns="http://www.w3.org/2000/svg" xmlns:xlink="http://www.w3.org/1999/xlink" xmlns:shaper="http://www.shapertools.com/namespaces/shaper" shaper:fusionaddin="version:1.7.0" width="27.6367244cm" height="23.66cm" version="1.1" x="0cm" y="0cm" viewBox="0 0 27.6367244 23.66" enable-background="new 0 0 27.6367244 23.66" xml:space="preserve"><g id="Body_Body16"><path d="M0.9525,11.98 L0,11.98 0,10.5275 0.3,10.5275 0.3,9.5525 0,9.5525 0,8.5775 0.3,8.5775 0.3,7.6025 0,7.6025 0,6.6275 0.3,6.6275 0.3,5.6525 0,5.6525 0,4.6775 0.3,4.6775 0.3,3.7025 0,3.7025 0,2.7275 0.3,2.7275 0.3,1.7525 0,1.7525 0,0.3 0.9525,0.3 0.9525,0.6 1.9275,0.6 1.9275,0.3 2.9025,0.3 2.9025,0.6 3.8775,0.6 3.8775,0.3 4.8525,0.3 4.8525,0.6 5.8275,0.6 5.8275,0.3 6.8025,0.3 6.8025,0.6 7.7775,0.6 7.7775,0.3 8.7525,0.3 8.7525,0.6 9.7275,0.6 9.7275,0.3 10.68,0.3 10.68,1.7525 10.38,1.7525 10.38,2.7275 10.68,2.7275 10.68,3.7025 10.38,3.7025 10.38,4.6775 10.68,4.6775 10.68,5.6525 10.38,5.6525 10.38,6.6275 10.68,6.6275 10.68,7.6025 10.38,7.6025 10.38,8.5775 10.68,8.5775 10.68,9.5525 10.38,9.5525 10.38,10.5275 10.68,10.5275 10.68,11.98 9.7275,11.98 9.7275,11.68 8.7525,11.68 8.7525,11.98 7.7775,11.98 7.7775,11.68 6.8025,11.68 6.8025,11.98 5.8275,11.98 5.8275,11.68 4.8525,11.68 4.8525,11.98 3.8775,11.98 3.8775,11.68 2.9025,11.68 2.9025,11.98 1.9275,11.98 1.9275,11.68 0.9525,11.68 0.9525,11.98z" transform="matrix(1,0,0,-1,3.02,23.96)" fill="rgb(0,0,0)" shaper:cutDepth="0.3175cm" stroke-linecap="round" stroke-linejoin="round" /><path d="M0.54,1.14 L0.54,11.14 10.14,11.14 10.14,1.14 0.54,1.14z" transform="matrix(1,0,0,-1,3.02,23.96)" fill="rgb(255,255,255)" stroke="rgb(0,0,0)" stroke-width="0.0010cm" stroke-linecap="round" stroke-linejoin="round" shaper:cutDepth="0.3175cm" /></g><g id="Body_Body11"><path d="M13.5467244,15.7246745 L13.5467244,5.6546745 16.1717244,5.6546745 16.1717244,5.3546745 17.1467244,5.3546745 17.1467244,5.6546745 21.0167244,5.6546745 21.0167244,5.3546745 21.9917244,5.3546745 21.9917244,5.6546745 24.6167244,5.6546745 24.6167244,15.7246745 21.9917244,15.7246745 21.9917244,16.0246745 21.0167244,16.0246745 21.0167244,15.7246745 17.1467244,15.7246745 17.1467244,16.0246745 16.1717244,16.0246745 16.1717244,15.7246745 13.5467244,15.7246745z" transform="matrix(1,0,0,-1,3.02,23.96)" fill="rgb(0,0,0)" shaper:cutDepth="0.3175cm" stroke-linecap="round" stroke-linejoin="round" /><path d="M14.0817244,15.4896745 L14.0817244,5.8896745 24.0817244,5.8896745 24.0817244,15.4896745 14.0817244,15.4896745z" transform="matrix(1,0,0,-1,3.02,23.96)" fill="rgb(255,255,255)" stroke="rgb(0,0,0)" stroke-width="0.0010cm" stroke-linecap="round" stroke-linejoin="round" shaper:cutDepth="0.3175cm" /></g><g id="Body_Body12"><path d="M0.9525,23.96 L0,23.96 0,22.5075 0.3,22.5075 0.3,21.5325 0,21.5325 0,20.5575 0.3,20.5575 0.3,19.5825 0,19.5825 0,18.6075 0.3,18.6075 0.3,17.6325 0,17.6325 0,16.6575 0.3,16.6575 0.3,15.6825 0,15.6825 0,14.7075 0.3,14.7075 0.3,13.7325 0,13.7325 0,12.28 0.9525,12.28 0.9525,12.58 1.9275,12.58 1.9275,12.28 2.9025,12.28 2.9025,12.58 3.8775,12.58 3.8775,12.28 4.8525,12.28 4.8525,12.58 5.8275,12.58 5.8275,12.28 6.8025,12.28 6.8025,12.58 7.7775,12.58 7.7775,12.28 8.7525,12.28 8.7525,12.58 9.7275,12.58 9.7275,12.28 10.68,12.28 10.68,13.7325 10.38,13.7325 10.38,14.7075 10.68,14.7075 10.68,15.6825 10.38,15.6825 10.38,16.6575 10.68,16.6575 10.68,17.6325 10.38,17.6325 10.38,18.6075 10.68,18.6075 10.68,19.5825 10.38,19.5825 10.38,20.5575 10.68,20.5575 10.68,21.5325 10.38,21.5325 10.38,22.5075 10.68,22.5075 10.68,23.96 9.7275,23.96 9.7275,23.66 8.7525,23.66 8.7525,23.96 7.7775,23.96 7.7775,23.66 6.8025,23.66 6.8025,23.96 5.8275,23.96 5.8275,23.66 4.8525,23.66 4.8525,23.96 3.8775,23.96 3.8775,23.66 2.9025,23.66 2.9025,23.96 1.9275,23.96 1.9275,23.66 0.9525,23.66 0.9525,23.96z" transform="matrix(1,0,0,-1,3.02,23.96)" fill="rgb(0,0,0)" shaper:cutDepth="0.3175cm" stroke-linecap="round" stroke-linejoin="round" /></g><g id="Body_Body13"><path d="M11.4925,11.98 L11.28,11.98 11.28,10.5275 10.98,10.5275 10.98,9.5525 11.28,9.5525 11.28,8.5775 10.98,8.5775 10.98,7.6025 11.28,7.6025 11.28,6.6275 10.98,6.6275 10.98,5.6525 11.28,5.6525 11.28,4.6775 10.98,4.6775 10.98,3.7025 11.28,3.7025 11.28,2.7275 10.98,2.7275 10.98,1.7525 11.28,1.7525 11.28,0.3 11.4925,0.3 11.4925,0.6 12.4675,0.6 12.4675,0.3 12.68,0.3 12.68,1.7525 12.98,1.7525 12.98,2.7275 12.68,2.7275 12.68,3.7025 12.98,3.7025 12.98,4.6775 12.68,4.6775 12.68,5.6525 12.98,5.6525 12.98,6.6275 12.68,6.6275 12.68,7.6025 12.98,7.6025 12.98,8.5775 12.68,8.5775 12.68,9.5525 12.98,9.5525 12.98,10.5275 12.68,10.5275 12.68,11.98 12.4675,11.98 12.4675,11.68 11.4925,11.68 11.4925,11.98z" transform="matrix(1,0,0,-1,3.02,23.96)" fill="rgb(0,0,0)" shaper:cutDepth="0.3175cm" stroke-linecap="round" stroke-linejoin="round" /><path d="M11.63,4.2 L11.63,3.225 11.93,3.225 11.93,4.2 11.63,4.2z" transform="matrix(1,0,0,-1,3.02,23.96)" fill="rgb(255,255,255)" stroke="rgb(0,0,0)" stroke-width="0.0010cm" stroke-linecap="round" stroke-linejoin="round" shaper:cutDepth="0.3175cm" /><path d="M11.63,8.08 L11.63,9.055 11.93,9.055 11.93,8.08 11.63,8.08z" transform="matrix(1,0,0,-1,3.02,23.96)" fill="rgb(255,255,255)" stroke="rgb(0,0,0)" stroke-width="0.0010cm" stroke-linecap="round" stroke-linejoin="round" shaper:cutDepth="0.3175cm" /></g><g id="Body_Body15"><path d="M-1.32,6.6275 L-1.32,7.6025 -1.02,7.6025 -1.02,8.5775 -1.32,8.5775 -1.32,9.5525 -1.02,9.5525 -1.02,10.5275 -1.32,10.5275 -1.32,11.98 -1.5325,11.98 -1.5325,11.68 -2.5075,11.68 -2.5075,11.98 -2.72,11.98 -2.72,10.5275 -3.02,10.5275 -3.02,9.5525 -2.72,9.5525 -2.72,8.5775 -3.02,8.5775 -3.02,7.6025 -2.72,7.6025 -2.72,6.6275 -3.02,6.6275 -3.02,5.6525 -2.72,5.6525 -2.72,4.6775 -3.02,4.6775 -3.02,3.7025 -2.72,3.7025 -2.72,2.7275 -3.02,2.7275 -3.02,1.7525 -2.72,1.7525 -2.72,0.3 -2.5075,0.3 -2.5075,0.6 -1.5325,0.6 -1.5325,0.3 -1.32,0.3 -1.32,1.7525 -1.02,1.7525 -1.02,2.7275 -1.32,2.7275 -1.32,3.7025 -1.02,3.7025 -1.02,4.6775 -1.32,4.6775 -1.32,5.6525 -1.02,5.6525 -1.02,6.6275 -1.32,6.6275z" transform="matrix(1,0,0,-1,3.02,23.96)" fill="rgb(0,0,0)" shaper:cutDepth="0.3175cm" stroke-linecap="round" stroke-linejoin="round" /><path d="M-2.07,4.2 L-2.37,4.2 -2.37,3.225 -2.07,3.225 -2.07,4.2z" transform="matrix(1,0,0,-1,3.02,23.96)" fill="rgb(255,255,255)" stroke="rgb(0,0,0)" stroke-width="0.0010cm" stroke-linecap="round" stroke-linejoin="round" shaper:cutDepth="0.3175cm" /><path d="M-2.07,9.055 L-2.07,8.08 -2.37,8.08 -2.37,9.055 -2.07,9.055z" transform="matrix(1,0,0,-1,3.02,23.96)" fill="rgb(255,255,255)" stroke="rgb(0,0,0)" stroke-width="0.0010cm" stroke-linecap="round" stroke-linejoin="round" shaper:cutDepth="0.3175cm" /></g><g id="Body_Body14"><path d="M14.2325,4.3 L13.58,4.3 13.58,4.0875 13.28,4.0875 13.28,3.1125 13.58,3.1125 13.58,2.9 14.2325,2.9 14.2325,2.6 15.2075,2.6 15.2075,2.9 16.1825,2.9 16.1825,2.6 17.1575,2.6 17.1575,2.9 18.1325,2.9 18.1325,2.6 19.1075,2.6 19.1075,2.9 20.0825,2.9 20.0825,2.6 21.0575,2.6 21.0575,2.9 22.0325,2.9 22.0325,2.6 23.0075,2.6 23.0075,2.9 23.66,2.9 23.66,3.1125 23.96,3.1125 23.96,4.0875 23.66,4.0875 23.66,4.3 23.0075,4.3 23.0075,4.6 22.0325,4.6 22.0325,4.3 21.0575,4.3 21.0575,4.6 20.0825,4.6 20.0825,4.3 19.1075,4.3 19.1075,4.6 18.1325,4.6 18.1325,4.3 17.1575,4.3 17.1575,4.6 16.1825,4.6 16.1825,4.3 15.2075,4.3 15.2075,4.6 14.2325,4.6 14.2325,4.3z" transform="matrix(1,0,0,-1,3.02,23.96)" fill="rgb(0,0,0)" shaper:cutDepth="0.3175cm" stroke-linecap="round" stroke-linejoin="round" /><path d="M22.92,3.6 a0.1,0.1 0 1,1 0.2,0 a0.1,0.1 0 1,1 -0.2,0z" transform="matrix(1,0,0,-1,3.02,23.96)" fill="rgb(255,255,255)" stroke="rgb(0,0,0)" stroke-width="0.0010cm" stroke-linecap="round" stroke-linejoin="round" shaper:cutDepth="0.3175cm" /><path d="M21.4533333,3.6 a0.1,0.1 0 1,1 0.2,0 a0.1,0.1 0 1,1 -0.2,0z" transform="matrix(1,0,0,-1,3.02,23.96)" fill="rgb(255,255,255)" stroke="rgb(0,0,0)" stroke-width="0.0010cm" stroke-linecap="round" stroke-linejoin="round" shaper:cutDepth="0.3175cm" /><path d="M19.9866667,3.6 a0.1,0.1 0 1,1 0.2,0 a0.1,0.1 0 1,1 -0.2,0z" transform="matrix(1,0,0,-1,3.02,23.96)" fill="rgb(255,255,255)" stroke="rgb(0,0,0)" stroke-width="0.0010cm" stroke-linecap="round" stroke-linejoin="round" shaper:cutDepth="0.3175cm" /><path d="M18.52,3.6 a0.1,0.1 0 1,1 0.2,0 a0.1,0.1 0 1,1 -0.2,0z" transform="matrix(1,0,0,-1,3.02,23.96)" fill="rgb(255,255,255)" stroke="rgb(0,0,0)" stroke-width="0.0010cm" stroke-linecap="round" stroke-linejoin="round" shaper:cutDepth="0.3175cm" /><path d="M14.5000002,4.1000001 L14.5000002,3.7000001 15.5000002,3.7000001 15.5000002,4.1000001 14.5000002,4.1000001z" transform="matrix(1,0,0,-1,3.02,23.96)" fill="rgb(255,255,255)" stroke="rgb(0,0,0)" stroke-width="0.0010cm" stroke-linecap="round" stroke-linejoin="round" shaper:cutDepth="0.3175cm" /></g><g id="Body_Body17"><path d="M14.2325,2 L13.58,2 13.58,1.7875 13.28,1.7875 13.28,0.8125 13.58,0.8125 13.58,0.6 14.2325,0.6 14.2325,0.3 15.2075,0.3 15.2075,0.6 16.1825,0.6 16.1825,0.3 17.1575,0.3 17.1575,0.6 18.1325,0.6 18.1325,0.3 19.1075,0.3 19.1075,0.6 20.0825,0.6 20.0825,0.3 21.0575,0.3 21.0575,0.6 22.0325,0.6 22.0325,0.3 23.0075,0.3 23.0075,0.6 23.66,0.6 23.66,0.8125 23.96,0.8125 23.96,1.7875 23.66,1.7875 23.66,2 23.0075,2 23.0075,2.3 22.0325,2.3 22.0325,2 21.0575,2 21.0575,2.3 20.0825,2.3 20.0825,2 19.1075,2 19.1075,2.3 18.1325,2.3 18.1325,2 17.1575,2 17.1575,2.3 16.1825,2.3 16.1825,2 15.2075,2 15.2075,2.3 14.2325,2.3 14.2325,2z" transform="matrix(1,0,0,-1,3.02,23.96)" fill="rgb(0,0,0)" shaper:cutDepth="0.3175cm" stroke-linecap="round" stroke-linejoin="round" /><path d="M22.92,1.3 a0.1,0.1 0 1,1 0.2,0 a0.1,0.1 0 1,1 -0.2,0z" transform="matrix(1,0,0,-1,3.02,23.96)" fill="rgb(255,255,255)" stroke="rgb(0,0,0)" stroke-width="0.0010cm" stroke-linecap="round" stroke-linejoin="round" shaper:cutDepth="0.3175cm" /><path d="M21.4533333,1.3 a0.1,0.1 0 1,1 0.2,0 a0.1,0.1 0 1,1 -0.2,0z" transform="matrix(1,0,0,-1,3.02,23.96)" fill="rgb(255,255,255)" stroke="rgb(0,0,0)" stroke-width="0.0010cm" stroke-linecap="round" stroke-linejoin="round" shaper:cutDepth="0.3175cm" /><path d="M19.9866667,1.3 a0.1,0.1 0 1,1 0.2,0 a0.1,0.1 0 1,1 -0.2,0z" transform="matrix(1,0,0,-1,3.02,23.96)" fill="rgb(255,255,255)" stroke="rgb(0,0,0)" stroke-width="0.0010cm" stroke-linecap="round" stroke-linejoin="round" shaper:cutDepth="0.3175cm" /><path d="M18.52,1.3 a0.1,0.1 0 1,1 0.2,0 a0.1,0.1 0 1,1 -0.2,0z" transform="matrix(1,0,0,-1,3.02,23.96)" fill="rgb(255,255,255)" stroke="rgb(0,0,0)" stroke-width="0.0010cm" stroke-linecap="round" stroke-linejoin="round" shaper:cutDepth="0.3175cm" /></g></svg>